<svg width="31" height="31" viewBox="0 0 31 31" fill="none" xmlns="http://www.w3.org/2000/svg">
<g clip-path="url(#clip0_66_479)">
<path fill-rule="evenodd" clip-rule="evenodd" d="M27.9451 4.84971C28.5015 3.73632 27.3677 2.5359 26.2264 3.02531L18.1753 6.4774C16.4695 7.20881 14.5384 7.20881 12.8325 6.4774L4.78146 3.02531C3.64007 2.53595 2.5063 3.73632 3.06275 4.84976L14.3107 27.3561C14.8023 28.3399 16.2054 28.34 16.6972 27.3561L27.9451 4.84971ZM25.4631 1.2448C28.265 0.0434016 31.0399 2.99024 29.6777 5.71587L18.4298 28.2222C17.2243 30.6343 13.7835 30.6343 12.578 28.2222L1.33009 5.71587C-0.0320697 2.99024 2.74277 0.0433993 5.54468 1.24479L13.5958 4.69684C14.8142 5.21929 16.1936 5.21929 17.4121 4.69684L25.4631 1.2448Z" fill="white"/>
</g>
<defs>
<clipPath id="clip0_66_479">
<rect width="31" height="31" fill="white" transform="translate(31 31) rotate(-180)"/>
</clipPath>
</defs>
</svg>
