<svg width="200" height="133" viewBox="0 0 200 133" fill="none" xmlns="http://www.w3.org/2000/svg">
<path d="M0.016663 116.346L0.016589 32.6958C0.016589 14.8617 5.75416 6.58172 21.9044 6.58172H65.8924C65.8924 6.58172 74.8175 2.48253 76.5176 1.69848C78.2176 0.914436 81.1926 0.00013266 81.1926 0.00013266L180.219 0C197.857 -0.000118377 199.982 10.6155 199.982 18.0464V87.472V107.642C199.982 107.642 200.539 115.922 195.519 121.654C190.499 127.386 180.219 127.386 180.219 127.386H115.406C115.406 127.386 111.368 129.191 106.268 130.783C101.168 132.376 95.8553 132.269 95.8553 132.269H18.5043C-1.25847 132.269 0.0166423 122.928 0.016663 116.346Z" fill="#DC9191"/>
</svg>
