<svg width="309" height="204" viewBox="0 0 309 204" fill="none" xmlns="http://www.w3.org/2000/svg">
<path d="M0.0257444 179.439L0.02563 50.4264C0.02563 22.9211 8.89018 10.1509 33.8422 10.1509H101.804C101.804 10.1509 115.593 3.82878 118.22 2.61955C120.846 1.41032 125.443 0.0002046 125.443 0.0002046C145.142 0.0002046 249.949 0.000190875 278.438 0C305.688 -0.000182572 308.972 16.3722 308.972 27.8328V134.907V166.014C308.972 166.014 309.833 178.785 302.077 187.626C294.321 196.466 278.438 196.466 278.438 196.466H178.302C178.302 196.466 172.064 199.25 164.184 201.706C156.304 204.161 148.096 203.998 148.096 203.998H28.5892C-1.94434 203.998 0.0257123 189.59 0.0257444 179.439Z" fill="#DC9191"/>
</svg>
