<svg width="252" height="167" viewBox="0 0 252 167" fill="none" xmlns="http://www.w3.org/2000/svg">
<path d="M0.0209954 146.596L0.0209021 41.1967C0.0209021 18.7258 7.25024 8.29296 27.5995 8.29296H83.0244C83.0244 8.29296 94.2701 3.12799 96.4121 2.14009C98.5542 1.15219 102.303 0.000167152 102.303 0.000167152C118.368 0.000167152 203.842 0.000155938 227.076 0C249.299 -0.000149155 251.977 13.3756 251.977 22.7385V110.215V135.628C251.977 135.628 252.68 146.061 246.354 153.284C240.029 160.507 227.076 160.507 227.076 160.507H145.411C145.411 160.507 140.324 162.781 133.898 164.787C127.471 166.793 120.778 166.66 120.778 166.66H23.3154C-1.58567 166.66 0.0209693 154.889 0.0209954 146.596Z" fill="#D9D9D9"/>
</svg>
