<svg width="254" height="169" viewBox="0 0 254 169" fill="none" xmlns="http://www.w3.org/2000/svg">
<path d="M1.021 147.596L1.0209 42.1967C1.0209 19.7258 8.25024 9.29296 28.5995 9.29296H84.0244C84.0244 9.29296 95.2701 4.12799 97.4121 3.14009C99.5542 2.15219 103.303 1.00017 103.303 1.00017C119.368 1.00017 204.842 1.00016 228.076 1C250.299 0.999851 252.977 14.3756 252.977 23.7385V111.215V136.628C252.977 136.628 253.68 147.061 247.354 154.284C241.029 161.507 228.076 161.507 228.076 161.507H146.411C146.411 161.507 141.324 163.781 134.898 165.787C128.471 167.793 121.778 167.66 121.778 167.66H24.3154C-0.585672 167.66 1.02097 155.889 1.021 147.596Z" fill="#D9D9D9" stroke="black"/>
</svg>
