<svg width="18" height="16" viewBox="0 0 18 16" fill="none" xmlns="http://www.w3.org/2000/svg">
<path d="M11.0157 0.317297C10.5926 -0.105766 9.90671 -0.105766 9.48363 0.317297C9.0606 0.740361 9.0606 1.4263 9.48363 1.84936L14.1343 6.50001L1.58299 6.5C0.984667 6.5 0.499658 6.98501 0.499658 7.58334C0.499658 8.18166 0.984667 8.66667 1.58299 8.66667L14.1343 8.66667L9.48363 13.3173C9.0606 13.7404 9.0606 14.4263 9.48363 14.8494C9.9067 15.2724 10.5926 15.2724 11.0157 14.8494L17.5157 8.34936C17.7189 8.14624 17.833 7.87064 17.833 7.58334C17.833 7.29604 17.7189 7.02044 17.5157 6.81731L11.0157 0.317297Z" fill="black"/>
</svg>
