<svg width="493" height="350" viewBox="0 0 493 350" fill="none" xmlns="http://www.w3.org/2000/svg">
<path d="M0.0377662 329.937L0.0386458 68.6995C0.0386458 46.2286 13.0427 35.7957 49.6466 35.7957H178.979C192.556 35.7957 197.866 26 201.465 13.5C205.064 1 228.446 0 233.843 0C239.241 0 406.284 0.261875 448.077 0.261719C488.052 0.26157 492.868 13.6373 492.868 23.0002L492.867 293.555V318.969C492.867 318.969 494.853 325.055 483.474 332.277C472.096 339.5 448.797 339.5 448.797 339.5H301.9C301.9 339.5 293.968 339.494 282.409 341.5C270.85 343.506 266.22 350 235.641 350H41.9395C-2.85229 350 0.0377192 338.229 0.0377662 329.937Z" fill="black"/>
</svg>
