<svg width="20" height="20" viewBox="0 0 20 20" fill="none" xmlns="http://www.w3.org/2000/svg">
<g clip-path="url(#clip0_66_475)">
<path fill-rule="evenodd" clip-rule="evenodd" d="M0.625 6.25C0.625 3.14341 3.14341 0.625 6.25 0.625H13.75C16.8566 0.625 19.375 3.14341 19.375 6.25V13.75C19.375 16.8566 16.8566 19.375 13.75 19.375H6.25C3.14341 19.375 0.625 16.8566 0.625 13.75V6.25ZM6.25 1.875C3.83375 1.875 1.875 3.83375 1.875 6.25V13.75C1.875 16.1663 3.83375 18.125 6.25 18.125H13.75C16.1663 18.125 18.125 16.1663 18.125 13.75V6.25C18.125 3.83375 16.1663 1.875 13.75 1.875H6.25Z" fill="#002664"/>
<path fill-rule="evenodd" clip-rule="evenodd" d="M4.6875 6.25C4.6875 5.90481 4.96731 5.625 5.3125 5.625H14.6875C15.0327 5.625 15.3125 5.90481 15.3125 6.25C15.3125 6.59519 15.0327 6.875 14.6875 6.875H5.3125C4.96731 6.875 4.6875 6.59519 4.6875 6.25ZM4.6875 10C4.6875 9.65481 4.96731 9.375 5.3125 9.375H10.3125C10.6577 9.375 10.9375 9.65481 10.9375 10C10.9375 10.3452 10.6577 10.625 10.3125 10.625H5.3125C4.96731 10.625 4.6875 10.3452 4.6875 10ZM4.6875 13.75C4.6875 13.4048 4.96731 13.125 5.3125 13.125H14.375C14.7202 13.125 15 13.4048 15 13.75C15 14.0952 14.7202 14.375 14.375 14.375H5.3125C4.96731 14.375 4.6875 14.0952 4.6875 13.75Z" fill="#002664"/>
</g>
<defs>
<clipPath id="clip0_66_475">
<rect width="20" height="20" fill="white"/>
</clipPath>
</defs>
</svg>
