<svg width="51" height="46" viewBox="0 0 51 46" fill="none" xmlns="http://www.w3.org/2000/svg">
<path d="M44.5829 30.1746C46.2392 25.2098 45.9815 20.1137 43.9137 15.3057C41.8459 10.4977 38.0821 6.61804 33.339 4.40547C28.5959 2.1929 23.2048 1.80193 18.1921 3.307C13.1794 4.81207 8.89525 8.10807 6.1554 12.5674C3.41555 17.0267 2.41136 22.338 3.33404 27.4898C4.25671 32.6416 7.0418 37.2741 11.159 40.5054C15.2762 43.7367 20.438 45.3409 25.6615 45.0127C30.8849 44.6845 36.1412 41.8588 39.8216 38.1376H38.6523H37.4831C34.1186 40.8358 30.3007 42.8185 25.5424 43.1175C20.7841 43.4165 16.082 41.9551 12.3314 39.0116C8.58085 36.068 6.04378 31.848 5.20327 27.155C4.36277 22.462 5.27753 17.6237 7.77339 13.5615C10.2692 9.49929 14.1719 6.49681 18.7382 5.12577C23.3045 3.75473 28.2155 4.11088 32.5363 6.12641C36.857 8.14195 40.2856 11.6761 42.1692 16.0559C44.0528 20.4357 44.2249 25.6519 42.7161 30.1746H44.5829Z" fill="#263785" stroke="#263785" stroke-width="0.2" stroke-linejoin="round"/>
<path d="M0.728541 32.6364C0.496641 32.7863 0.430184 33.0958 0.580107 33.3277C0.73003 33.5596 1.03956 33.6261 1.27146 33.4761L0.728541 32.6364ZM1.27146 33.4761L50.7715 1.47458L50.2285 0.634795L0.728541 32.6364L1.27146 33.4761Z" fill="url(#paint0_linear_235_33)"/>
<path d="M23.5 30.5547C22 28.0552 19.3804 28.1656 14.8804 28.6651C14.8804 28.6651 13.1577 28.9082 12.0685 29.3491C13.5685 28.3491 19 25.0547 21 25.0547C23 25.0547 23.5 26.0547 23.5 26.0547L50.5 1.05469L23.5 30.5547Z" fill="#263785"/>
<path d="M1 33.0547L2 35.0542L12.0685 29.3491M12.0685 29.3491C13.1577 28.9082 14.8804 28.6651 14.8804 28.6651C19.3804 28.1656 22 28.0552 23.5 30.5547L50.5 1.05469L23.5 26.0547C23.5 26.0547 23 25.0547 21 25.0547C19 25.0547 13.5685 28.3491 12.0685 29.3491Z" stroke="url(#paint1_linear_235_33)" stroke-linecap="round" stroke-linejoin="round"/>
<path d="M28.5744 34.0229C28.5744 34.0229 30.0889 34.0978 30.0889 35.3636C30.0889 36.6295 28.5744 36.7777 28.5744 36.7777C28.5744 36.7777 25.0878 36.7777 25.0244 36.7777C24.9609 36.7777 25.5454 34.0229 25.5454 34.0229M28.5744 34.0229H25.5454M28.5744 34.0229C28.5744 34.0229 30.0889 33.6505 30.0889 32.5829C30.0889 31.5153 29.4434 31.5668 29.4434 31.5668C29.4434 31.5668 26.1226 31.5668 25.9921 31.5668C25.9226 31.5668 25.5454 34.0229 25.5454 34.0229" stroke="#263785"/>
<path d="M32.9612 31.5312C32.8462 32.2923 32.4513 34.4521 32.2759 36.3735C32.1005 38.2949 37.1929 30.0657 36.9496 31.8019C36.7063 33.538 36.2105 36.1371 36.1176 36.6821" stroke="#263785" stroke-linecap="round"/>
<path d="M38.291 36.6848C38.291 36.6848 39.1288 36.6848 39.3023 36.6848C39.4758 36.6848 40.1971 31.586 40.3458 31.586C40.4944 31.586 43.4587 31.5859 43.5615 31.586C43.6644 31.5861 42.6395 36.1875 42.5142 36.6848" stroke="#263785" stroke-linecap="round"/>
<path d="M50.4048 32.6039C50.4048 32.6039 49.7235 31.6176 48.5616 31.5541C47.3998 31.4905 46.187 32.3588 45.833 33.52C45.4789 34.6813 45.5911 35.2259 45.833 35.7494C46.0749 36.2729 46.8947 36.7018 47.8105 36.6869C48.7263 36.6721 50.1346 35.8975 50.1346 35.8975" stroke="#263785" stroke-linecap="round"/>
<defs>
<linearGradient id="paint0_linear_235_33" x1="50.5" y1="1.05469" x2="0.999998" y2="33.0563" gradientUnits="userSpaceOnUse">
<stop stop-color="#B5B9C8"/>
<stop offset="0.715" stop-color="#263785"/>
</linearGradient>
<linearGradient id="paint1_linear_235_33" x1="50.5" y1="1.05469" x2="43.729" y2="8.25841" gradientUnits="userSpaceOnUse">
<stop stop-color="#B2B7C7"/>
<stop offset="0.845" stop-color="#263785"/>
</linearGradient>
</defs>
</svg>
