<svg width="20" height="20" viewBox="0 0 20 20" fill="none" xmlns="http://www.w3.org/2000/svg">
<g clip-path="url(#clip0_106_306)">
<path fill-rule="evenodd" clip-rule="evenodd" d="M3.277 3.277C6.81304 -0.259001 12.5461 -0.259001 16.0821 3.277C19.4695 6.66447 19.6118 12.0683 16.509 15.6251L19.1919 18.3081C19.436 18.5521 19.436 18.9479 19.1919 19.1919C18.9479 19.436 18.5521 19.436 18.3081 19.1919L15.6251 16.509C12.0683 19.6118 6.66447 19.4695 3.277 16.0821C-0.259001 12.5461 -0.259001 6.81304 3.277 3.277ZM15.1982 4.16091C12.1503 1.11304 7.20875 1.11304 4.16091 4.16091C1.11304 7.20875 1.11304 12.1503 4.16091 15.1982C7.20875 18.2461 12.1503 18.2461 15.1982 15.1982C18.2461 12.1503 18.2461 7.20875 15.1982 4.16091Z" fill="#002664"/>
</g>
<defs>
<clipPath id="clip0_106_306">
<rect width="20" height="20" fill="white"/>
</clipPath>
</defs>
</svg>
