<svg width="51" height="46" viewBox="0 0 51 46" fill="none" xmlns="http://www.w3.org/2000/svg">
<path d="M44.5829 30.1199C46.2392 25.1551 45.9815 20.059 43.9137 15.251C41.8459 10.443 38.0821 6.56335 33.339 4.35078C28.5959 2.13821 23.2048 1.74724 18.1921 3.25231C13.1794 4.75739 8.89525 8.05338 6.1554 12.5127C3.41555 16.9721 2.41136 22.2833 3.33404 27.4351C4.25671 32.5869 7.0418 37.2195 11.159 40.4507C15.2762 43.682 20.438 45.2862 25.6615 44.958C30.8849 44.6299 36.1412 41.8041 39.8216 38.0829H38.6523H37.4831C34.1186 40.7811 30.3007 42.7638 25.5424 43.0628C20.7841 43.3618 16.082 41.9004 12.3314 38.9569C8.58085 36.0134 6.04378 31.7933 5.20327 27.1003C4.36277 22.4073 5.27753 17.569 7.77339 13.5068C10.2692 9.4446 14.1719 6.44212 18.7382 5.07108C23.3045 3.70004 28.2155 4.05619 32.5363 6.07173C36.857 8.08726 40.2856 11.6214 42.1692 16.0012C44.0528 20.3811 44.2249 25.5973 42.7161 30.1199H44.5829Z" fill="white" stroke="white" stroke-width="0.2" stroke-linejoin="round"/>
<path d="M0.728541 32.5817C0.496641 32.7316 0.430184 33.0411 0.580107 33.273C0.73003 33.5049 1.03956 33.5714 1.27146 33.4215L0.728541 32.5817ZM1.27146 33.4215L50.7715 1.41989L50.2285 0.580107L0.728541 32.5817L1.27146 33.4215Z" fill="url(#paint0_linear_235_58)"/>
<path d="M23.5 30.5C22 28.0005 19.3804 28.1109 14.8804 28.6104C14.8804 28.6104 13.1577 28.8535 12.0685 29.2944C13.5685 28.2944 19 25 21 25C23 25 23.5 26 23.5 26L50.5 1L23.5 30.5Z" fill="white"/>
<path d="M1 33L2 34.9995L12.0685 29.2944M12.0685 29.2944C13.1577 28.8535 14.8804 28.6104 14.8804 28.6104C19.3804 28.1109 22 28.0005 23.5 30.5L50.5 1L23.5 26C23.5 26 23 25 21 25C19 25 13.5685 28.2944 12.0685 29.2944Z" stroke="url(#paint1_linear_235_58)" stroke-linecap="round" stroke-linejoin="round"/>
<path d="M28.5744 33.9683C28.5744 33.9683 30.0889 34.0431 30.0889 35.309C30.0889 36.5748 28.5744 36.7231 28.5744 36.7231C28.5744 36.7231 25.0878 36.7231 25.0244 36.7231C24.9609 36.7231 25.5454 33.9683 25.5454 33.9683M28.5744 33.9683H25.5454M28.5744 33.9683C28.5744 33.9683 30.0889 33.5958 30.0889 32.5282C30.0889 31.4607 29.4434 31.5121 29.4434 31.5121C29.4434 31.5121 26.1226 31.5121 25.9921 31.5121C25.9226 31.5121 25.5454 33.9683 25.5454 33.9683" stroke="white"/>
<path d="M32.9612 31.4766C32.8462 32.2376 32.4513 34.3974 32.2759 36.3188C32.1005 38.2402 37.1929 30.011 36.9496 31.7472C36.7063 33.4833 36.2105 36.0824 36.1176 36.6274" stroke="white" stroke-linecap="round"/>
<path d="M38.291 36.6301C38.291 36.6301 39.1288 36.6301 39.3023 36.6301C39.4758 36.6301 40.1971 31.5313 40.3458 31.5313C40.4944 31.5313 43.4587 31.5312 43.5615 31.5313C43.6644 31.5314 42.6395 36.1328 42.5142 36.6301" stroke="white" stroke-linecap="round"/>
<path d="M50.4048 32.5492C50.4048 32.5492 49.7235 31.5629 48.5616 31.4994C47.3998 31.4358 46.187 32.3041 45.833 33.4653C45.4789 34.6266 45.5911 35.1713 45.833 35.6947C46.0749 36.2182 46.8947 36.6471 47.8105 36.6323C48.7263 36.6174 50.1346 35.8428 50.1346 35.8428" stroke="white" stroke-linecap="round"/>
<defs>
<linearGradient id="paint0_linear_235_58" x1="50.5" y1="1" x2="0.999998" y2="33.0016" gradientUnits="userSpaceOnUse">
<stop stop-color="#B5B9C8"/>
<stop offset="0.715" stop-color="white"/>
</linearGradient>
<linearGradient id="paint1_linear_235_58" x1="50.5" y1="1" x2="43.729" y2="8.20372" gradientUnits="userSpaceOnUse">
<stop stop-color="#B2B7C7"/>
<stop offset="0.845" stop-color="white"/>
</linearGradient>
</defs>
</svg>
