<svg width="26" height="25" viewBox="0 0 26 25" fill="none" xmlns="http://www.w3.org/2000/svg">
<path fill-rule="evenodd" clip-rule="evenodd" d="M20.9485 4.98961L10.1437 17.6201L17.7066 21.6421C17.9619 21.7778 18.2748 21.6222 18.3207 21.337L20.9485 4.98961ZM8.68323 18.377L3.00429 15.357C1.76044 14.6955 1.74557 12.9186 2.97818 12.2364L19.7382 2.9605C21.0335 2.2436 22.5862 3.33348 22.3512 4.79543L19.6576 21.5518C19.4644 22.7541 18.1457 23.4092 17.0707 22.8375L13.372 20.8706L12.242 22.0004C11.243 22.9991 9.53397 22.4881 9.2477 21.1047L8.68323 18.377ZM8.93073 16.975C8.97017 16.9157 9.01337 16.8584 9.06026 16.8036L19.4348 4.67602L3.63394 13.421C3.34143 13.5829 3.34495 14.0045 3.64014 14.1615L8.93073 16.975ZM12.1219 20.2057L11.2845 21.0429C11.0473 21.28 10.6416 21.1585 10.5737 20.8304L10.237 19.2033L12.1219 20.2057Z" fill="white"/>
</svg>
