<svg width="26" height="25" viewBox="0 0 26 25" fill="none" xmlns="http://www.w3.org/2000/svg">
<g clip-path="url(#clip0_233_193)">
<path d="M25.375 19.8786L24.5145 17.8563C23.7641 16.0634 22.7733 14.5128 21.5629 13.2352C23.1534 11.9623 24.7495 9.74464 24.7495 5.97264V4.50854C24.7495 3.64873 24.05 2.94922 23.1902 2.94922H20.2619C19.4021 2.94922 18.7026 3.64873 18.7026 4.50854V5.97264C18.7026 7.06101 18.5007 7.76828 18.0479 8.26584C17.7313 8.61383 17.262 8.88947 16.6472 9.08942V3.6874C16.6472 3.27973 16.3167 2.94922 15.909 2.94922H10.4262C9.32846 2.94922 8.43545 3.84223 8.43545 4.93993C8.43545 5.8658 9.0645 6.66219 9.96523 6.87659L10.2051 6.93367C10.4378 6.98904 10.6003 7.1948 10.6003 7.43401V15.0183C9.94404 14.5688 9.33115 13.9729 8.79268 13.2562C7.34439 11.3285 6.54679 8.74181 6.54679 5.97254V4.50854C6.54679 3.64873 5.84728 2.94922 4.98747 2.94922H2.05927C1.19946 2.94922 0.5 3.64873 0.5 4.50854V5.97264C0.5 10.1253 1.77514 14.0602 4.0907 17.0524C6.5839 20.2741 9.96948 22.0484 13.6238 22.0484H15.0879C15.9477 22.0484 16.6472 21.3489 16.6472 20.4891V16.8973C17.5934 17.712 18.3615 18.8166 18.9368 20.1918L19.3129 21.0909C19.5562 21.6725 20.1209 22.0484 20.7514 22.0484H23.94C24.465 22.0484 24.9512 21.787 25.2409 21.3491C25.5304 20.9113 25.5806 20.3615 25.375 19.8786ZM24.0092 20.5348C23.9846 20.572 23.9523 20.572 23.94 20.572H20.7514C20.7179 20.572 20.6879 20.552 20.6749 20.5211L20.2988 19.6221C19.4802 17.6651 18.3037 16.1653 16.8022 15.1642C16.6319 15.0507 16.457 14.9443 16.2673 14.839C16.1558 14.777 16.0323 14.7461 15.909 14.7461C15.7795 14.7461 15.65 14.7802 15.5346 14.8481C15.3092 14.9807 15.1708 15.2228 15.1708 15.4843V20.4891C15.1708 20.5348 15.1336 20.572 15.0879 20.572H13.6238C10.4365 20.572 7.46563 19.0011 5.25832 16.1488C3.14198 13.4139 1.97646 9.79991 1.97646 5.97259V4.50854C1.97646 4.46283 2.01366 4.42563 2.05937 4.42563H4.98752C5.03323 4.42563 5.07043 4.46283 5.07043 4.50854V5.97264C5.07043 9.05968 5.97316 11.9613 7.61221 14.1431C8.5792 15.4301 9.76772 16.3988 11.0493 16.9443C11.2773 17.0414 11.5388 17.0175 11.7455 16.8809C11.9523 16.7442 12.0766 16.5129 12.0766 16.2651V7.43406C12.0766 6.50813 11.4476 5.7117 10.5469 5.49735L10.307 5.44032C10.0743 5.3849 9.91176 5.17909 9.91176 4.93993C9.91176 4.65634 10.1425 4.42558 10.4261 4.42558H15.1708V10.0308C15.1708 10.2497 15.268 10.4574 15.4361 10.5976C15.6042 10.7378 15.8259 10.7964 16.0413 10.757C17.422 10.5056 18.4646 10.0017 19.1399 9.25939C19.8585 8.46965 20.179 7.45603 20.179 5.97259V4.50849C20.179 4.46278 20.2162 4.42558 20.2619 4.42558H23.1901C23.2358 4.42558 23.273 4.46278 23.273 4.50849V5.97259C23.273 9.66974 21.5061 11.5759 20.0238 12.5241C19.8309 12.6474 19.7062 12.8533 19.6862 13.0813C19.6662 13.3095 19.7532 13.5339 19.9216 13.689C21.2697 14.9302 22.3569 16.5246 23.1532 18.4279C23.1538 18.4293 23.1544 18.4306 23.1549 18.432L24.0164 20.4566C24.0211 20.4679 24.0338 20.4977 24.0092 20.5348Z" fill="white"/>
</g>
<defs>
<clipPath id="clip0_233_193">
<rect width="25" height="25" fill="white" transform="translate(0.5)"/>
</clipPath>
</defs>
</svg>
